{"title":"Bat Shit Crazy 2011 DvDRip XviD Ac3 Feel-Free","uid":7015272,"size":1058555079,"categoryP":"video","categoryS":"movies","magnet":"?xt=urn:btih:1518bfaae3cab432b6bbda1b7f8b3f5b364c0be3&amp;dn=Bat+Shit+Crazy+2011+DvDRip+XviD+Ac3+Feel-Free&amp;tr=udp%3A%2F%2Ftracker.openbittorrent.com%3A80&amp;tr=udp%3A%2F%2Fopen.demonii.com%3A1337&amp;tr=udp%3A%2F%2Ftracker.coppersurfer.tk%3A6969&amp;tr=udp%3A%2F%2Fexodus.desync.com%3A6969","seeders":0,"leechers":1,"uploader":".BONE.","files":7,"time":1328628193,"description":"Genre: Thriller\nLanguage:English\n &lt;a href=&quot;\nhttp://www.imdb.com/title/tt1937100/&quot; rel=&quot;nofollow&quot; target=&quot;_NEW&quot;&gt;\nhttp://www.imdb.com/title/tt1937100/&lt;/a&gt;\n\nSource:NTSC DVDR-0MNiDVD Thanks!\nEncoder:Tony\n\nFormat : AVI\nFormat/Info : Audio Video Interleave\nFile size : 1 009 MiB\nDuration : 1h 23mn\nOverall bit rate : 1 682 Kbps\n\nVideo\nID : 0\nFormat : MPEG-4 Visual\nFormat profile : Advanced Simple@L5\nFormat settings, BVOP : 1\nFormat settings, QPel : No\nFormat settings, GMC : No warppoints\nFormat settings, Matrix : Default (H.263)\nCodec ID : XVID\nCodec ID/Hint : XviD\nDuration : 1h 23mn\nBit rate : 1 224 Kbps\nWidth : 640 pixels\nHeight : 368 pixels\nDisplay aspect ratio : 16:9\nFrame rate : 23.976 fps\nColor space : YUV\nChroma subsampling : 4:2:0\nBit depth : 8 bits\nScan type : Progressive\nCompression mode : Lossy\nBits/(Pixel*Frame) : 0.217\nStream size : 734 MiB (73%)\nWriting library : XviD 1.2.1 (UTC 2008-12-04)\n\nAudio\nID : 1\nFormat : AC-3\nFormat/Info : Audio Coding 3\nMode extension : CM (complete main)\nCodec ID : 2000\nDuration : 1h 23mn\nBit rate mode : Constant\nBit rate : 448 Kbps\nChannel(s) : 2 channels\nChannel positions : Front: L R\nSampling rate : 48.0 KHz\nBit depth : 16 bits\nCompression mode : Lossy\nStream size : 269 MiB (27%)\nAlignment : Aligned on interleaves\nInterleave, duration : 42 ms (1.00 video frame)\nInterleave, preload duration : 512 ms\n\n\nPlot:\nIs it real or a nightmare?","torrent":{"xt":"urn:btih:1518bfaae3cab432b6bbda1b7f8b3f5b364c0be3","amp;dn":"Bat+Shit+Crazy+2011+DvDRip+XviD+Ac3+Feel-Free","amp;tr":["udp%3A%2F%2Ftracker.openbittorrent.com%3A80","udp%3A%2F%2Fopen.demonii.com%3A1337","udp%3A%2F%2Ftracker.coppersurfer.tk%3A6969","udp%3A%2F%2Fexodus.desync.com%3A6969"],"infoHash":"1518bfaae3cab432b6bbda1b7f8b3f5b364c0be3","infoHashBuffer":{"type":"Buffer","data":[21,24,191,170,227,202,180,50,182,187,218,27,127,139,63,91,54,76,11,227]},"announce":[],"urlList":[]}}